<svg width="379" height="158" viewBox="0 0 379 158" fill="none" xmlns="http://www.w3.org/2000/svg">
<path d="M103.572 0H79.3879V23.4348H103.572V0Z" fill="#F7F5EE"/>
<path d="M44.8639 42.7537V9.11759H20.6798V42.7537H0V61.1973H20.6696V127.386C20.8122 132.023 21.2706 136.139 22.055 139.754C22.8292 143.37 24.3166 146.371 26.5068 148.757C28.697 151.144 31.7327 152.957 35.6344 154.186C39.5259 155.416 44.65 156.031 51.0169 156.031C53.7063 156.031 56.3243 155.885 58.8609 155.593C61.4077 155.301 64.0258 155.009 66.7152 154.728V135.628C65.0139 136.066 63.3229 136.316 61.6216 136.389C59.9204 136.462 58.2293 136.493 56.5281 136.493C53.8387 136.493 51.7198 136.17 50.1612 135.513C48.6025 134.857 47.431 133.888 46.6568 132.585C45.8826 131.283 45.3834 129.689 45.1695 127.813C44.9556 125.937 44.8537 123.687 44.8537 121.082V61.1764H81.8124V154.937H103.572V56.8104C103.572 49.0474 97.419 42.7537 89.8296 42.7537H44.8537H44.8639Z" fill="#F7F5EE"/>
<path d="M148.772 66.9492C151.747 63.9898 154.996 61.9579 158.531 60.8742C162.066 59.7905 165.387 59.2487 168.504 59.2487C175.289 59.2487 180.912 61.0201 185.374 64.563C189.826 68.1162 192.546 73.3471 193.544 80.2973H217.728C217.158 73.3471 215.467 67.3451 212.635 62.2809C209.803 57.2168 206.166 53.0279 201.704 49.6935C197.252 46.3694 192.159 43.8686 186.423 42.2014C180.698 40.5446 174.647 39.711 168.28 39.711C159.224 39.711 151.339 41.2636 144.626 44.3792C137.902 47.4948 132.279 51.7566 127.756 57.1855C123.233 62.6144 119.831 69.0123 117.569 76.3898C115.308 83.7672 114.177 91.6552 114.177 100.043C114.177 108.432 115.348 115.965 117.681 123.051C120.014 130.147 123.437 136.253 127.97 141.39C132.493 146.527 138.045 150.581 144.626 153.551C151.197 156.51 158.806 158 167.435 158C181.574 158 192.933 154.134 201.49 146.392C210.047 138.65 215.457 127.48 217.718 112.86H193.534C192.403 120.967 189.531 127.261 184.946 131.741C180.352 136.222 174.515 138.473 167.445 138.473C162.209 138.473 157.757 137.358 154.08 135.107C150.402 132.867 147.397 129.939 145.064 126.312C142.731 122.697 141.03 118.57 139.97 113.944C138.911 109.317 138.381 104.68 138.381 100.054C138.381 91.5198 139.369 84.6112 141.356 79.3282C143.332 74.0452 145.808 69.9189 148.782 66.9596L148.772 66.9492Z" fill="#F7F5EE"/>
<path d="M379 61.1973V42.7537H357.149V9.11759H332.965V42.7537H303.88C300.203 42.7537 296.678 44.2646 294.091 46.9426L251.998 85.6324V0H227.814V154.957H251.998V114.809L266.423 100.481L299.948 154.957H329.44L283.394 83.986L306.611 61.1973H332.954V127.386C333.097 132.023 333.555 136.139 334.34 139.754C335.114 143.37 336.601 146.371 338.792 148.757C340.982 151.144 344.018 152.957 347.919 154.186C351.811 155.416 356.935 156.031 363.302 156.031C365.991 156.031 368.609 155.885 371.146 155.593C373.692 155.301 376.311 155.009 379 154.728V135.628C377.299 136.066 375.608 136.316 373.906 136.389C372.205 136.462 370.514 136.493 368.813 136.493C366.124 136.493 364.005 136.17 362.446 135.513C360.887 134.857 359.716 133.888 358.942 132.585C358.167 131.283 357.668 129.689 357.454 127.813C357.24 125.937 357.138 123.687 357.138 121.082V61.1764H378.99L379 61.1973Z" fill="#F7F5EE"/>
</svg>
