<svg width="209" height="44" viewBox="0 0 209 44" fill="none" xmlns="http://www.w3.org/2000/svg">
<path d="M133.233 0H126.581V6.38715H133.233V0Z" fill="black"/>
<path d="M117.084 11.6525V2.485H110.431V11.6525H104.742V16.6793H110.428V34.719C110.467 35.9828 110.593 37.1046 110.809 38.09C111.022 39.0755 111.431 39.8934 112.034 40.5438C112.636 41.1942 113.471 41.6883 114.545 42.0234C115.615 42.3586 117.025 42.5261 118.776 42.5261C119.516 42.5261 120.236 42.4864 120.934 42.4068C121.635 42.3273 122.355 42.2478 123.095 42.1711V36.9654C122.627 37.0847 122.161 37.1528 121.693 37.1727C121.225 37.1926 120.76 37.2011 120.292 37.2011C119.552 37.2011 118.97 37.1131 118.541 36.9342C118.112 36.7552 117.79 36.4911 117.577 36.1361C117.364 35.7811 117.227 35.3466 117.168 34.8354C117.109 34.3242 117.081 33.7108 117.081 33.0008V16.6736H127.248V42.2279H133.233V15.4837C133.233 13.3679 131.541 11.6525 129.453 11.6525H117.081H117.084Z" fill="black"/>
<path d="M145.667 18.247C146.486 17.4404 147.379 16.8866 148.352 16.5913C149.324 16.2959 150.238 16.1482 151.095 16.1482C152.962 16.1482 154.509 16.631 155.736 17.5966C156.961 18.5651 157.709 19.9907 157.983 21.885H164.636C164.479 19.9907 164.014 18.3549 163.235 16.9747C162.456 15.5944 161.456 14.4527 160.228 13.5439C159.003 12.638 157.602 11.9564 156.025 11.502C154.45 11.0504 152.785 10.8232 151.034 10.8232C148.542 10.8232 146.373 11.2464 144.527 12.0955C142.677 12.9447 141.13 14.1063 139.886 15.5859C138.642 17.0655 137.706 18.8093 137.084 20.82C136.462 22.8307 136.151 24.9806 136.151 27.2668C136.151 29.553 136.473 31.6063 137.115 33.5375C137.756 35.4716 138.698 37.1358 139.945 38.5359C141.189 39.936 142.716 41.0408 144.527 41.8502C146.334 42.6568 148.428 43.0629 150.801 43.0629C154.691 43.0629 157.815 42.0092 160.169 39.8991C162.523 37.789 164.011 34.7445 164.633 30.76H157.981C157.67 32.9695 156.879 34.6849 155.618 35.9061C154.354 37.1273 152.749 37.7407 150.804 37.7407C149.364 37.7407 148.139 37.4368 147.127 36.8234C146.116 36.2128 145.289 35.4148 144.647 34.4264C144.005 33.441 143.537 32.3163 143.246 31.0554C142.955 29.7944 142.809 28.5306 142.809 27.2697C142.809 24.9437 143.081 23.0608 143.627 21.6209C144.171 20.181 144.852 19.0564 145.67 18.2498L145.667 18.247Z" fill="black"/>
<path d="M209 16.6793V11.6525H202.989V2.485H196.336V11.6525H188.335C187.324 11.6525 186.354 12.0643 185.642 12.7942L174.063 23.3391V0H167.41V42.2336H174.063V31.2911L178.031 27.3861L187.254 42.2336H195.366L182.7 22.8904L189.086 16.6793H196.333V34.719C196.372 35.9828 196.499 37.1046 196.714 38.09C196.927 39.0755 197.336 39.8934 197.939 40.5438C198.541 41.1942 199.377 41.6883 200.45 42.0234C201.52 42.3586 202.93 42.5261 204.681 42.5261C205.421 42.5261 206.141 42.4864 206.839 42.4068C207.54 42.3273 208.26 42.2478 209 42.1711V36.9654C208.532 37.0847 208.067 37.1528 207.599 37.1727C207.131 37.1926 206.665 37.2011 206.197 37.2011C205.458 37.2011 204.875 37.1131 204.446 36.9342C204.017 36.7552 203.695 36.4911 203.482 36.1361C203.269 35.7811 203.132 35.3466 203.073 34.8354C203.014 34.3242 202.986 33.7108 202.986 33.0008V16.6736H208.997L209 16.6793Z" fill="black"/>
<path d="M98.5283 43.063V3.89841H101.792V43.063H98.5283Z" fill="black"/>
<path d="M88.9724 28.2675C87.5944 28.8477 86.1983 29.2284 84.784 29.4097C83.3697 29.5911 81.9554 29.7361 80.5412 29.8449C78.039 30.0262 76.0807 30.5883 74.6665 31.5312C73.2885 32.474 72.5995 33.9064 72.5995 35.8284C72.5995 36.6987 72.7626 37.4602 73.089 38.113C73.4516 38.7295 73.9049 39.2553 74.4489 39.6904C75.0291 40.0893 75.6819 40.3976 76.4071 40.6152C77.1687 40.7965 77.9302 40.8871 78.6917 40.8871C79.9972 40.8871 81.2664 40.724 82.4994 40.3976C83.7323 40.0712 84.8202 39.5817 85.7631 38.9289C86.7422 38.2399 87.5219 37.3877 88.1021 36.3723C88.6823 35.3207 88.9724 34.0877 88.9724 32.6735V28.2675ZM83.4785 26.6356C84.095 26.5631 84.8202 26.4543 85.6543 26.3092C86.5246 26.1642 87.2318 25.9647 87.7757 25.7109C88.3197 25.457 88.646 25.04 88.7548 24.4598C88.8999 23.8433 88.9724 23.2812 88.9724 22.7735C88.9724 21.1054 88.4285 19.7455 87.3406 18.6939C86.2889 17.606 84.4939 17.062 81.9554 17.062C80.8313 17.062 79.7978 17.1708 78.8549 17.3884C77.9121 17.5697 77.078 17.9142 76.3527 18.4219C75.6637 18.8933 75.0835 19.5461 74.6121 20.3801C74.1769 21.1779 73.8868 22.1933 73.7418 23.4263H70.4236C70.5324 21.7582 70.9132 20.3439 71.5659 19.1834C72.2187 17.9868 73.0527 17.0258 74.0681 16.3005C75.1198 15.539 76.3165 14.995 77.6582 14.6686C79.0362 14.306 80.4868 14.1247 82.0098 14.1247C83.4241 14.1247 84.7477 14.2879 85.9807 14.6143C87.2499 14.9044 88.3378 15.3939 89.2444 16.0829C90.1872 16.7357 90.9125 17.6241 91.4202 18.7483C91.9642 19.8725 92.2361 21.2505 92.2361 22.8823V38.2218C92.2361 39.491 92.4537 40.3069 92.8889 40.6696C93.3603 40.9959 94.285 40.9053 95.663 40.3976V42.9542C95.4092 43.0267 95.0284 43.1355 94.5207 43.2805C94.0493 43.4256 93.5779 43.4981 93.1065 43.4981C92.5988 43.4981 92.1092 43.4437 91.6378 43.3349C91.0938 43.2624 90.6587 43.0992 90.3323 42.8454C90.0059 42.5553 89.7339 42.2289 89.5164 41.8663C89.3351 41.4674 89.2081 41.0503 89.1356 40.6152C89.0631 40.1437 89.0268 39.6542 89.0268 39.1465C87.6488 40.6696 86.0713 41.83 84.2944 42.6278C82.5175 43.4256 80.5955 43.8245 78.5285 43.8245C77.2956 43.8245 76.0989 43.6613 74.9384 43.3349C73.8143 43.0086 72.817 42.5009 71.9467 41.8119C71.0764 41.1229 70.3874 40.2888 69.8797 39.3097C69.372 38.2943 69.1182 37.0976 69.1182 35.7196C69.1182 30.9328 72.4 28.1043 78.9637 27.2339L83.4785 26.6356Z" fill="black"/>
<path d="M63.4255 27.0164C63.4255 25.6383 63.226 24.351 62.8271 23.1543C62.4645 21.9213 61.9024 20.8697 61.1409 19.9994C60.4156 19.0928 59.4909 18.3857 58.3667 17.878C57.2425 17.334 55.9552 17.062 54.5047 17.062C53.0541 17.062 51.7668 17.334 50.6426 17.878C49.5547 18.4219 48.6118 19.1472 47.814 20.0538C47.0525 20.9604 46.436 22.012 45.9646 23.2087C45.4932 24.4054 45.1849 25.6746 45.0399 27.0164H63.4255ZM45.0399 29.7361C45.0399 31.2592 45.2393 32.7097 45.6382 34.0877C46.0371 35.4295 46.6174 36.6081 47.3789 37.6234C48.1767 38.6025 49.1739 39.4003 50.3706 40.0168C51.5673 40.597 52.9453 40.8871 54.5047 40.8871C56.6442 40.8871 58.4755 40.3251 59.9986 39.2009C61.5216 38.0767 62.537 36.4811 63.0447 34.4141H66.6892C66.2903 35.7559 65.7645 37.0069 65.1117 38.1674C64.459 39.2915 63.6431 40.2888 62.6639 41.1591C61.6848 41.9932 60.5244 42.6459 59.1826 43.1173C57.8409 43.5888 56.2816 43.8245 54.5047 43.8245C52.2563 43.8245 50.3162 43.4437 48.6844 42.6822C47.0525 41.9207 45.7108 40.8871 44.6591 39.5817C43.6075 38.2399 42.8278 36.6806 42.3201 34.9037C41.8124 33.0905 41.5586 31.1504 41.5586 29.0834C41.5586 27.0164 41.8487 25.0763 42.4289 23.2631C43.0454 21.4499 43.8976 19.8725 44.9855 18.5307C46.1097 17.1527 47.4695 16.0829 49.0651 15.3214C50.6607 14.5236 52.4739 14.1247 54.5047 14.1247C58.3848 14.1247 61.431 15.4664 63.6431 18.1499C65.8551 20.7972 66.943 24.6592 66.9068 29.7361H45.0399Z" fill="black"/>
<path d="M3.26371 43.0629H0V14.8862H3.26371V19.1291H3.3725C4.20656 17.4972 5.40326 16.2642 6.96259 15.4302C8.52192 14.5599 10.2263 14.1247 12.0757 14.1247C13.3812 14.1247 14.4873 14.2697 15.3938 14.5599C16.3004 14.85 17.062 15.2489 17.6784 15.7565C18.3312 16.228 18.857 16.7901 19.2559 17.4428C19.6911 18.0955 20.0537 18.8027 20.3438 19.5642C21.2867 17.7148 22.5378 16.3549 24.0971 15.4846C25.6927 14.578 27.5058 14.1247 29.5366 14.1247C31.4586 14.1247 32.9816 14.4511 34.1058 15.1038C35.2662 15.7203 36.1547 16.5543 36.7712 17.606C37.3877 18.6214 37.7865 19.7999 37.9679 21.1417C38.1854 22.4834 38.2942 23.8614 38.2942 25.2757V43.0629H35.0305V23.5895C35.0305 21.5587 34.5954 19.9631 33.725 18.8027C32.891 17.6423 31.3135 17.062 28.9927 17.062C27.796 17.062 26.6355 17.334 25.5114 17.878C24.4235 18.3857 23.4625 19.1834 22.6284 20.2714C22.2658 20.7428 21.9575 21.3049 21.7037 21.9576C21.4861 22.5741 21.3048 23.2268 21.1597 23.9158C21.0147 24.6048 20.9059 25.2938 20.8334 25.9829C20.7971 26.6719 20.779 27.3065 20.779 27.8867V43.0629H17.5153V23.5895C17.5153 21.5587 17.0801 19.9631 16.2098 18.8027C15.3757 17.6423 13.7983 17.062 11.4774 17.062C10.2807 17.062 9.12027 17.334 7.9961 17.878C6.90819 18.3857 5.94721 19.1834 5.11315 20.2714C4.75052 20.7428 4.44228 21.3049 4.18843 21.9576C3.97085 22.5741 3.78953 23.2268 3.64448 23.9158C3.49943 24.6048 3.39064 25.2938 3.31811 25.9829C3.28185 26.6719 3.26371 27.3065 3.26371 27.8867V43.0629Z" fill="black"/>
</svg>
