<svg width="53" height="39" viewBox="0 0 53 39" fill="none" xmlns="http://www.w3.org/2000/svg">
<path d="M0 38.78V24.2202C0 17.3199 1.63308 11.8686 4.89925 7.86641C8.21142 3.8642 13.0187 1.24206 19.321 0V7.17637C14.6288 8.64845 11.4776 11.1786 9.86751 14.7668C9.03947 16.6529 8.69445 18.608 8.83246 20.6321H19.666V38.78H0ZM52.0287 7.17637C47.3824 8.60244 44.2543 11.1786 42.6442 14.9048C41.7242 16.8829 41.3561 18.792 41.5401 20.6321H52.3737V38.78H32.7077V24.2202C32.7077 17.2279 34.3868 11.7536 37.7449 7.7974C41.1491 3.8412 45.9104 1.24206 52.0287 0V7.17637Z" fill="#F7F5EE"/>
</svg>
